<?xml version="1.0" encoding="UTF-8" standalone="no"?>
<svg xmlns="http://www.w3.org/2000/svg" height="24.712mm" width="36.989mm" version="1.1" viewBox="0 0 36.98859 24.712084">
 <g transform="translate(-413.15 44.195)">
  <path d="m425.2-25.463 24.621 0.00041m-30.48-12.383h30.48m-27.622-6.0325c-1.5875 0-2.8572 1.2702-2.8572 2.8577v9.4723c3.244 0 5.8735 2.6296 5.8735 5.8735 0 0.07105-0.0122 0.14102-0.0152 0.21146-0.0368 1.0351-0.32994 2.0028-0.83517 2.8344-0.005 0.0079-0.0102 0.01539-0.015 0.02325h22.614c1.5875 0 2.8572-1.2697 2.8572-2.8572v-15.558c0-1.5875-1.2697-2.8577-2.8572-2.8577z" stroke="currentColor" stroke-width="0.635" fill="none"/>
  <g stroke-width=".26458" fill="currentColor">
   <path d="m439.53-34.776v1.8521h1.8521v-1.8521zm1.3229 1.3229h-0.79375v-0.79375h0.79375z"/>
   <path d="m439.53-30.278v1.8521h1.8521v-1.8521zm1.3229 1.3229h-0.79375v-0.79375h0.79375z"/>
   <path d="m444.03-34.776v1.8521h1.8521v-1.8521zm1.3229 1.3229h-0.79375v-0.79375h0.79375z"/>
   <path d="m444.03-30.278v1.8521h1.8521v-1.8521zm1.3229 1.3229h-0.79375v-0.79375h0.79375z"/>
   <path d="m441.91-34.776v0.52917h1.0583v1.3229h0.52916v-1.8521z"/>
   <path d="m442.44-28.955v-1.3229h-0.52917v1.8521h1.0583v-0.52917z"/>
   <path d="m445.88-32.395h-0.52916v1.0583h0.52916z"/>
   <path d="m444.83-32.395h-1.8521v2.884h0.52916v-2.3548h1.3229z"/>
   <path d="m442.44-31.337h-1.8521v0.52917h1.8521z"/>
   <path d="m441.91-33.718v1.3229h-2.3812v1.5875h0.52917v-1.0583h2.3812v-1.8521z"/>
  </g>
  <g stroke="currentColor" stroke-width="0.635" fill="none">
   <path d="m419.35-19.801c3.244 0 5.8738-2.6298 5.8738-5.8738s-2.6298-5.8738-5.8738-5.8738-5.8738 2.6298-5.8738 5.8738 2.6298 5.8738 5.8738 5.8738z"/>
   <path d="m419.32-29.008v6.8792"/>
   <path d="m416.01-25.648h6.6675"/>
  </g>
 </g>
</svg>
