<?xml version="1.0" encoding="UTF-8" standalone="no"?>
<svg xmlns="http://www.w3.org/2000/svg" height="50.074mm" width="50mm" version="1.1" viewBox="0 0 50 50.074358">
 <g transform="translate(71.899 -175.25)">
  <path stroke-width=".11755" d="m-48.977 225.15c-7.5446-1.0349-13.958-5.6814-17.266-12.509-2.6673-5.5052-2.9551-12.119-0.77364-17.783 0.81009-2.1032 2.1863-4.5048 3.5144-6.1327l0.56308-0.69018-1.1569-1.1612c-0.63628-0.63868-1.2006-1.1612-1.2541-1.1612s-0.29252 0.15215-0.53118 0.33812c-0.87033 0.67818-1.7506 0.77252-2.7166 0.29114-0.72223-0.3599-1.2514-1.0781-1.3626-1.8494-0.09542-0.66148 0.1944-1.5447 0.66682-2.0321l0.38429-0.39649-1.4947-1.498-1.4947-1.498 1.5877-1.5845 1.5877-1.5844 23.126 23.126 23.126 23.126-1.5848 1.5881-1.5848 1.5881-2.7637-2.7559-2.7637-2.7559-0.64652 0.5285c-2.5758 2.1056-6.2109 3.8404-9.4628 4.5161-2.3623 0.49084-5.3976 0.60478-7.6995 0.28904zm4.6732-4.8784c2.3407-0.2466 4.2608-0.80916 6.2851-1.8414 1.1606-0.59188 3.2652-1.9719 3.2652-2.141 0-0.0397-5.5459-5.618-12.324-12.396l-12.324-12.324-0.35189 0.45159c-1.6067 2.0618-2.8326 4.7388-3.4098 7.4458-0.303 1.4211-0.3029 5.2776 0.000235 6.7003 0.74788 3.5106 2.3725 6.5332 4.8364 8.998 3.7524 3.7537 8.9389 5.6425 14.023 5.1068zm16.706-9.6086-1.8338-1.8514 0.27517-0.87807c0.59365-1.8944 0.69036-2.6224 0.68748-5.1758-0.0023-2.028-0.04255-2.5869-0.25409-3.528-0.76-3.381-2.2375-6.158-4.5571-8.5653-2.0625-2.1405-4.4525-3.6537-7.1668-4.5378-1.9287-0.62815-3.2561-0.82543-5.5329-0.82232-2.1496 0.003-3.2637 0.16241-5.0279 0.71971l-0.94324 0.29797-1.8634-1.8606c-1.0249-1.0234-1.8634-1.8956-1.8634-1.9384s0.45587-0.26861 1.013-0.50185c6.8014-2.8471 14.51-2.2324 20.694 1.6504 5.947 3.7336 9.7856 9.934 10.496 16.953 0.23818 2.3545 0.10277 4.5886-0.42055 6.9386-0.42415 1.9048-1.5149 4.9508-1.7728 4.9508-0.0528 0-0.92122-0.83314-1.9298-1.8514zm2.387-24.158c-0.22095-0.0707-2.2081-1.6384-4.5844-3.6166-3.0747-2.5596-4.2682-3.6234-4.4707-3.9849-0.60603-1.0819-0.23176-2.5682 0.82234-3.2658 0.61459-0.40671 1.675-0.50693 2.3141-0.21872 0.62111 0.28009 8.6064 6.9815 8.8753 7.4483 0.7393 1.2836 0.28602 2.84-1.016 3.4889-0.63667 0.31727-1.2642 0.36543-1.9405 0.14893zm-35.001-8.447-1.7547-1.7638 0.40267-0.3414c0.67897-0.57565 1.1306-0.73206 1.9611-0.67918 0.92012 0.0586 1.5946 0.48406 2.015 1.271 0.39479 0.73911 0.34251 1.8676-0.11882 2.5647-0.59194 0.89449-0.55344 0.91064-2.5052-1.0512z"/>
  <path d="m-26.998 137.53 97.801 97.801" stroke-width="0" fill="none"/>
 </g>
</svg>
