<?xml version="1.0" encoding="UTF-8" standalone="no"?>
<svg xmlns="http://www.w3.org/2000/svg" height="6.3369mm" width="6.0854mm" version="1.1" viewBox="0 0 6.0854936 6.3370203">
 <g transform="matrix(0.46 0 0 0.46 -9.6099 -75.948)">
  <path stroke-width=".032348" d="m26.753 178.85c-1.5778-0.20246-3.0001-0.98104-4.014-2.1974-1.2077-1.4488-1.6837-3.3502-1.3072-5.222 0.60697-3.0176 3.4261-5.1544 6.5069-4.9322 3.8944 0.28091 6.5549 3.9924 5.5725 7.7738-0.63608 2.4482-2.732 4.2635-5.2886 4.5807-0.32116 0.0399-1.1494 0.0383-1.4696-0.003zm1.202-1.3544c1.9106-0.20129 3.4824-1.4274 4.11-3.206 0.20134-0.57063 0.24885-0.87992 0.24782-1.6135-0.000978-0.73177-0.04105-0.99393-0.23959-1.5693-0.34922-1.0121-1.0654-1.9142-1.9947-2.5126-0.45082-0.29032-1.1291-0.55241-1.7113-0.66126-0.44671-0.0835-1.2677-0.0835-1.7144 0-0.99826 0.18665-1.8109 0.61688-2.5415 1.3456-0.76034 0.75836-1.1846 1.5698-1.3621 2.6051-0.05642 0.32914-0.06384 0.47428-0.04878 0.95427 0.01935 0.61691 0.06065 0.86196 0.23248 1.3795 0.47174 1.4208 1.6266 2.5769 3.0465 3.05 0.65207 0.21725 1.3334 0.296 1.9755 0.22835zm-2.5396-3.4045c-0.59149-0.59168-1.0754-1.0905-1.0754-1.1085 0-0.0419 0.71843-0.75947 0.76041-0.75947 0.01736 0 0.34106 0.30924 0.71932 0.68719l0.68775 0.6872 1.6658-1.6656 1.6658-1.6656 0.38816 0.38817 0.38816 0.38816-2.0623 2.0621-2.0623 2.0621zm-4.1459-5.9324c-0.43002-0.21429-0.50828-0.76036-0.1577-1.1004 0.26486-0.25693 2.2035-1.8523 2.3154-1.9054 0.17793-0.0844 0.4876-0.0523 0.65892 0.0684 0.27594 0.19436 0.37117 0.58924 0.21341 0.88493-0.09744 0.18264-2.3231 2.0444-2.5115 2.1009-0.19264 0.0577-0.33161 0.0447-0.5185-0.0484zm11.94 0.0447c-0.0608-0.0195-0.60764-0.45086-1.2616-0.99524-0.84612-0.70438-1.1745-0.99713-1.2303-1.0966-0.16677-0.29772-0.06377-0.70674 0.2263-0.8987 0.16912-0.11192 0.46093-0.1395 0.63681-0.0602 0.17092 0.0771 2.3684 1.9212 2.4424 2.0497 0.20344 0.35323 0.07871 0.78154-0.2796 0.96009-0.1752 0.0873-0.34789 0.10056-0.53401 0.041z"/>
 </g>
</svg>
