<?xml version="1.0" encoding="UTF-8" standalone="no"?>
<svg xmlns="http://www.w3.org/2000/svg" height="118.53mm" width="135.47mm" version="1.1" viewBox="0 0 135.46667 118.53333">
 <g transform="translate(-44.904 -94.102)">
  <path d="m130.71 102.57c0.87313 0 1.6669 0.55562 1.9844 1.3758l5.8473 15.558h29.131c2.3283 0 4.2333 1.905 4.2333 4.2333v76.2c0 2.3283-1.905 4.2333-4.2333 4.2333h-110.07c-2.3283 0-4.2333-1.905-4.2333-4.2333v-76.2c0-2.3283 1.905-4.2333 4.2333-4.2333h29.157l5.3181-14.182c0.60854-1.6404 2.196-2.7517 3.9688-2.7517h34.66m0-8.4667h-34.652c-5.2917 0-10.028 3.2808-11.88 8.2285l-3.2808 8.7048h-23.283c-7.0115 0-12.7 5.6886-12.7 12.7v76.2c0 7.0115 5.6885 12.7 12.7 12.7h110.07c7.0114 0 12.7-5.6885 12.7-12.7v-76.2c0-7.0114-5.6886-12.7-12.7-12.7h-23.28l-3.7835-10.054c-1.5346-4.154-5.4769-6.8792-9.8954-6.8792zm-18.06 99.477c-17.515 0-31.75-14.235-31.75-31.75s14.235-31.75 31.75-31.75 31.75 14.235 31.75 31.75-14.235 31.75-31.75 31.75zm0-55.033c-12.832 0-23.283 10.451-23.283 23.283s10.451 23.283 23.283 23.283 23.283-10.451 23.283-23.283-10.451-23.283-23.283-23.283z" class="" stroke-width=".26458" fill="currentColor"/>
 </g>
</svg>
