<?xml version="1.0" encoding="UTF-8" standalone="no"?>
<svg xmlns="http://www.w3.org/2000/svg" height="24.712mm" width="36.989mm" version="1.1" viewBox="0 0 36.98875 24.712084">
 <g transform="translate(-119.84 -178.05)">
  <g fill="none" transform="matrix(.26458 0 0 .26458 119.63 177.84)">
   <g stroke="currentColor" stroke-width="2.4">
    <path d="m35 2h93.6c6 0 10.8 4.8 10.8 10.8v58.8c0 6-4.8 10.8-10.8 10.8h-93.6c-6 0-10.8-4.8-10.8-10.8v-58.8c0-6 4.8-10.8 10.8-10.8z"/>
    <path d="m24.2 24.8h115.2"/>
    <path d="m24.2 71.6h115.2"/>
   </g>
   <g fill="currentColor">
    <path d="m100.5 36.4v7h7v-7zm5 5h-3v-3h3z"/>
    <path d="m100.5 53.4v7h7v-7zm5 5h-3v-3h3z"/>
    <path d="m117.5 36.4v7h7v-7zm5 5h-3v-3h3z"/>
    <path d="m109.5 36.4v2h4v5h2v-7z"/>
    <path d="m111.5 58.4v-5h-2v7h4v-2z"/>
    <path d="m124.5 45.4h-2v4h2z"/>
    <path d="m120.5 45.4h-7v4h2v-2h5z"/>
    <path d="m111.5 49.4h-7v2h7z"/>
    <path d="m109.5 40.4v5h-9v6h2v-4h9v-7z"/>
    <path d="m119.5 50.4c-2.8 0-5 2.2-5 5s2.2 5 5 5 5-2.2 5-5c0-2.7-2.2-5-5-5zm-0.3 7.2-2.7-2.7 1.1-1.1 1.6 1.6 2.3-2.3 1.1 1.1z"/>
   </g>
   <path d="m24.2 93c12.261 0 22.2-9.939 22.2-22.2s-9.939-22.2-22.2-22.2-22.2 9.939-22.2 22.2 9.939 22.2 22.2 22.2z" stroke="currentColor" stroke-width="2.4" fill="#f7f7f7"/>
   <path fill="#f7f7f7" d="m34 59.8-10.8 22.6-7.3-13.8"/>
   <path stroke-width="2.4" stroke="currentColor" d="m34 59.8-10.8 22.6-7.3-13.8"/>
  </g>
 </g>
</svg>
