<?xml version="1.0" encoding="UTF-8" standalone="no"?>
<svg xmlns="http://www.w3.org/2000/svg" height="19.311" width="18.898" version="1.1" viewBox="0 0 18.898199 19.3113" fill="none">
 <g transform="translate(-.91602 -.2771)">
  <g fill-opacity="0">
   <rect transform="translate(.91602 .2771)" height="19.311" width="18.898" y="0" x="0"/>
   <rect transform="translate(.91602 .2771)" height="19.311" width="18.898" y="0" x="0"/>
   <rect transform="translate(.91602 .2771)" height="19.311" width="18.898" y="0" x="0"/>
  </g>
  <path fill="currentColor" d="m14.355 5.8562c-0.2519-0.25749-0.6719-0.25749-0.9239 0l-3.066 3.1327-3.0446-3.1327c-0.25197-0.25749-0.67193-0.25749-0.92391 0-0.25197 0.25748-0.25197 0.68662 0 0.94411l3.0447 3.1327-3.0657 3.111c-0.25197 0.2575-0.25197 0.6866 0 0.9441 0.12599 0.1287 0.29398 0.1931 0.46196 0.1931s0.33597-0.0644 0.46196-0.1931l3.0657-3.1113 3.0447 3.1328c0.126 0.1287 0.294 0.1931 0.462 0.1931s0.3359-0.0644 0.4619-0.1931c0.252-0.2575 0.252-0.6867 0-0.9442l-3.045-3.133 3.066-3.1112c0.252-0.27894 0.252-0.68662 0-0.96556z"/>
  <path fill="currentColor" d="m10.365 0.2771c-5.2285 0-9.4491 4.3128-9.4491 9.6556s4.2206 9.6557 9.4491 9.6557 9.4491-4.3129 9.4491-9.6557-4.2206-9.6556-9.4491-9.6556zm5.7534 15.535c-1.5328 1.5663-3.5696 2.4246-5.7534 2.4246-2.1628 0-4.2206-0.8583-5.7534-2.4246-1.5322-1.566-2.3721-3.648-2.3721-5.8793 0-2.21 0.8399-4.3128 2.3727-5.8792 1.5329-1.5663 3.5697-2.4246 5.7534-2.4246 2.1628 0 4.2206 0.85828 5.7534 2.4246 1.5329 1.5664 2.3728 3.6477 2.3728 5.8792 0 2.2101-0.8399 4.3129-2.3728 5.8793z"/>
 </g>
</svg>
