<svg width="20" height="20" viewBox="0 0 20 20" fill="none" xmlns="http://www.w3.org/2000/svg">
<path d="M1 7.75V1.75C1 1.33579 1.33579 1 1.75 1H7.75C8.16421 1 8.5 1.33579 8.5 1.75V7.75C8.5 8.16421 8.16421 8.5 7.75 8.5H1.75C1.33579 8.5 1 8.16421 1 7.75Z" stroke="currentColor" stroke-width="2"/>
<path d="M11.5 7.75V1.75C11.5 1.33579 11.8358 1 12.25 1H18.25C18.6642 1 19 1.33579 19 1.75V7.75C19 8.16421 18.6642 8.5 18.25 8.5H12.25C11.8358 8.5 11.5 8.16421 11.5 7.75Z" stroke="currentColor" stroke-width="2"/>
<path d="M19 12.6625L19 17.8375C19 18.2222 19 18.4146 18.9311 18.564C18.8563 18.7262 18.7262 18.8563 18.564 18.9311C18.4146 19 18.2222 19 17.8375 19L12.6625 19C12.2778 19 12.0854 19 11.936 18.9311C11.7738 18.8563 11.6437 18.7262 11.5689 18.564C11.5 18.4146 11.5 18.2222 11.5 17.8375L11.5 17.8375L11.5 12.6625C11.5 12.2778 11.5 12.0854 11.5689 11.936C11.6437 11.7738 11.7738 11.6437 11.936 11.5689C12.0854 11.5 12.2778 11.5 12.6625 11.5L17.8375 11.5C18.2222 11.5 18.4146 11.5 18.564 11.5689C18.7262 11.6437 18.8563 11.7738 18.9311 11.936C19 12.0854 19 12.2778 19 12.6625Z" stroke="currentColor" stroke-width="2"/>
<path d="M8.5 12.6625L8.5 17.8375C8.5 18.2222 8.5 18.4146 8.43111 18.564C8.35634 18.7262 8.22617 18.8563 8.06399 18.9311C7.91456 19 7.7222 19 7.3375 19L2.1625 19C1.7778 19 1.58545 19 1.43601 18.9311C1.27383 18.8563 1.14366 18.7262 1.06889 18.564C1 18.4146 1 18.2222 1 17.8375L1 12.6625C1 12.2778 1 12.0854 1.06889 11.936C1.14366 11.7738 1.27383 11.6437 1.43601 11.5689C1.58545 11.5 1.7778 11.5 2.1625 11.5L7.3375 11.5C7.7222 11.5 7.91455 11.5 8.06399 11.5689C8.22617 11.6437 8.35634 11.7738 8.43111 11.936C8.5 12.0854 8.5 12.2778 8.5 12.6625Z" stroke="currentColor" stroke-width="2"/>
</svg>
