<?xml version="1.0" encoding="UTF-8" standalone="no"?>
<svg xmlns="http://www.w3.org/2000/svg" height="9.4657mm" width="13.669mm" version="1.1" viewBox="0 0 13.669314 9.4656547">
 <g transform="translate(-11.233 -138.95)">
  <g transform="matrix(.077882 0 0 .077882 10.561 136.65)">
   <g fill="#cb0000" transform="matrix(.26458 0 0 .26458 15.421 9.2845)">
    <g fill="#cb0000">
     <g fill="#cb0000">
      <path d="m494.7 255c-17.85-86.7-94.35-153-188.7-153-73.95 0-137.7 40.8-168.3 102-79.05 10.2-137.7 73.95-137.7 153 0 84.15 68.85 153 153 153h331.5c71.4 0 127.5-56.1 127.5-127.5 0-66.3-53.55-122.4-117.3-127.5z" stroke="#000" stroke-width="51.36" fill="none"/>
     </g>
    </g>
   </g>
   <g transform="matrix(.26458 0 0 .26458 15.421 9.2845)">
    <g id="cloud-download">
     <path d="m433.5 331.5-127.5 127.5-127.5-127.5h76.5v-102h102v102z"/>
    </g>
   </g>
  </g>
 </g>
</svg>
