<svg width="34" height="22" viewBox="0 0 34 22" fill="none" xmlns="http://www.w3.org/2000/svg">
<path d="M16.7798 15.8359H16.7588V5.21856H16.7798V2.24181H16.7588V0H14.9813V2.32039C6.57038 3.18013 0 10.6713 0 10.6713C0 10.6713 5.48447 18.2703 14.9813 19.0407V21.2625H16.7588V19.1054H16.7798V15.8359ZM2.86182 10.6713C2.86182 9.51112 7.4042 5.51592 13.4785 4.41736C12.2334 4.97566 11.1807 5.86027 10.4433 6.96784C9.70595 8.07542 9.31439 9.3602 9.31439 10.6721C9.31439 11.984 9.70595 13.2687 10.4433 14.3763C11.1807 15.4839 12.2334 16.3685 13.4785 16.9268C7.4042 15.8267 2.86182 11.833 2.86182 10.6713ZM14.9813 15.6418C13.8141 15.3261 12.7868 14.6559 12.0553 13.733C11.3238 12.8101 10.928 11.6848 10.928 10.528C10.928 9.3712 11.3238 8.24596 12.0553 7.32306C12.7868 6.40016 13.8141 5.72998 14.9813 5.41423V15.6418Z" fill="currentColor"/>
<path d="M18.8799 2.41724V5.72063C19.8356 6.1507 20.6435 6.83095 21.2093 7.68207C21.7751 8.53319 22.0755 9.52012 22.0755 10.5278C22.0755 11.5355 21.7751 12.5224 21.2093 13.3735C20.6435 14.2247 19.8356 14.9049 18.8799 15.335V18.9511C27.8968 17.8279 33.1259 10.5324 33.1259 10.5324C33.1259 10.5324 26.9143 3.62211 18.8799 2.41724ZM19.6103 16.9482C20.864 16.3936 21.9252 15.5088 22.6689 14.3982C23.4126 13.2875 23.8077 11.9973 23.8077 10.6796C23.8077 9.36185 23.4126 8.0716 22.6689 6.96094C21.9252 5.85029 20.864 4.96553 19.6103 4.41098C25.7007 5.47102 30.2593 9.38147 30.2593 10.6788C30.2593 11.9761 25.7007 15.8789 19.6103 16.9482Z" fill="currentColor" />
</svg>
