<?xml version="1.0" encoding="UTF-8" standalone="no"?>
<svg xmlns="http://www.w3.org/2000/svg" height="82.8" width="117.6" version="1.1" viewBox="0 0 117.6 82.800003" fill="none">
 <g stroke="currentColor" transform="translate(-0.8 -0.8)">
  <path d="m78.8 14.4c-0.8 0.8-1 1.9-0.7 2.9-0.4 0.1-0.8 0.2-1.2 0.4l-14.9 6.2-0.1-0.1-14.9-5.3c-0.3-0.1-0.6-0.2-0.9-0.3 0.4-1.1 0.2-2.3-0.7-3.1l-4.5-4.5c-1.1-1.1-3.1-1.1-4.2 0l-16.4 16.4c-1.2 1.2-1.2 3 0 4.2l4.5 4.5c0.6 0.6 1.3 0.9 2.1 0.9 0.4 0 0.8-0.1 1.2-0.2-0.2 3.1 0.3 6.1 1.7 8.9l0.3 0.6c-0.7 0.9-1.1 2-1.1 3.1 0 1.3 0.5 2.6 1.4 3.5s2.2 1.4 3.5 1.4l-0.6 0.6c-0.9 0.9-1.4 2.2-1.4 3.5s0.5 2.6 1.4 3.5 2.2 1.4 3.5 1.4c0.4 0 0.8-0.1 1.2-0.2-0.4 1.6 0 3.4 1.3 4.7 0.9 0.9 2.2 1.4 3.5 1.4 1.1 0 2.2-0.4 3.1-1.1 0 2.7 2.2 4.9 4.9 4.9 0.8 0 1.6-0.2 2.3-0.6l1.3 1.3c0.9 0.9 2.1 1.4 3.4 1.4s2.5-0.5 3.4-1.4 1.4-2.1 1.4-3.3l1 1c1.8 1.8 4.7 2 6.6 0.4 1-0.9 1.7-2.2 1.7-3.6l0.3 0.3c1.9 1.9 4.8 2 6.7 0.4 1-0.9 1.6-2.2 1.6-3.6v-0.1c1.6 1.1 3.7 1.2 5.4 0.2 1.4-0.9 2.2-2.4 2.2-4.1 0-1.3-0.5-2.5-1.4-3.4l-0.9-0.9c3.7-3.8 6.8-8.2 8.7-12.2 1.3-2.8 1.9-5.9 1.6-9 0.5 0.3 1 0.5 1.6 0.5 0.8 0 1.5-0.3 2.1-0.9l4.5-4.5c1.2-1.2 1.2-3 0-4.2l-16.8-16.5c-1.1-1.1-3.1-1.1-4.2 0zm-53 20.3-4.5-4.5c-0.6-0.6-0.6-1.5 0-2.1l16.4-16.4c0.3-0.3 0.7-0.4 1.1-0.4s0.8 0.2 1.1 0.4l4.5 4.5c0.6 0.6 0.6 1.5 0 2.1l-16.5 16.4c-0.5 0.5-1.5 0.5-2.1 0zm5.5 16.7c-0.7-0.7-1-1.5-1-2.5s0.4-1.8 1-2.5l1.1-1.1c0.7-0.7 1.5-1 2.5-1 0.9 0 1.8 0.4 2.5 1 1.4 1.4 1.4 3.6 0 4.9l-0.9 0.9s-0.1 0-0.1 0.1l-0.2 0.2c-1.4 1.3-3.6 1.2-4.9 0zm2.8 9c-0.7-0.7-1-1.5-1-2.5s0.4-1.8 1-2.5l3-3 0.1-0.1 0.2-0.2c0.6-0.6 1.5-0.9 2.4-0.9s1.8 0.4 2.5 1c0.7 0.7 1 1.5 1 2.5s-0.4 1.8-1 2.5l-3.2 3.2c-1.4 1.3-3.7 1.3-5 0zm10.9 5.9c-1.3 1.3-3.6 1.3-4.9 0-1.4-1.4-1.4-3.6 0-4.9l2.5-2.5c0.7-0.7 1.5-1 2.5-1 0.9 0 1.8 0.4 2.5 1 1.4 1.4 1.4 3.6 0 4.9l-0.2 0.2-0.4 0.4zm2.1 1.4c0-0.9 0.3-1.6 0.8-2.2l0.4-0.4c0.6-0.5 1.4-0.8 2.2-0.8 1.9 0 3.5 1.6 3.5 3.5s-1.6 3.5-3.5 3.5c-1.9-0.1-3.4-1.6-3.4-3.6zm37.6-4c-1.3 0.8-3.1 0.6-4.3-0.6l-1.6-1.7s-0.1 0-0.1-0.1l-7.2-7.2c-0.3-0.3-0.7-0.3-1 0s-0.3 0.7 0 1l7.3 7.3c0.6 0.6 0.9 1.4 0.9 2.3 0 1-0.4 1.9-1.2 2.5-1.3 1.1-3.4 1-4.7-0.3l-2.7-2.7c-0.1-0.1-0.1-0.1-0.2-0.1 0-0.1-0.1-0.2-0.2-0.2l-5-5c-0.3-0.3-0.7-0.3-1 0s-0.3 0.7 0 1l5 5c0.1 0.1 0.1 0.1 0.2 0.1 0 0.1 0.1 0.2 0.2 0.2 0.6 0.6 1 1.5 1 2.4 0 1-0.4 1.9-1.2 2.5-1.3 1.1-3.4 1-4.7-0.3l-3.4-3.4-2.6-2.6c-0.3-0.3-0.7-0.3-1 0s-0.3 0.7 0 1l2.6 2.6c0.6 0.6 1 1.5 1 2.4s-0.3 1.7-1 2.4c-0.6 0.6-1.4 1-2.4 1-0.9 0-1.7-0.4-2.4-1l-1.1-1.1c0.9-0.9 1.4-2.1 1.4-3.5 0-2.7-2.2-4.9-4.9-4.9-0.3 0-0.6 0-0.9 0.1 0.5-1.7 0.1-3.6-1.2-5-1.1-1.1-2.7-1.5-4.2-1.3 0.2-0.6 0.4-1.2 0.4-1.8 0-1.3-0.5-2.6-1.4-3.5-1.1-1.1-2.5-1.5-4-1.4 0.9-1.8 0.6-4.1-0.9-5.6-1.9-1.9-5.1-1.9-7 0l-0.3 0.3c-1.4-3-1.9-6.2-1.4-9.4v-0.1l15.6-15.6c0.4 0.1 0.8 0.2 1.2 0.4l13.6 4.8-9.7 4.1c-0.2 0.1-0.4 0.2-0.5 0.2 0 0-0.1 0.1-0.2 0.1-0.8 0.4-1.4 1.1-1.9 1.8l-2.1 4c-0.7 1.1-0.8 2.5-0.5 3.7 0.3 1.3 1.2 2.3 2.3 3 2.3 1.4 5.4 0.6 6.7-1.8l1.5-2.5c0.1-0.2 0.3-0.4 0.5-0.4l5.1-2.1 14 13.7 10.1 10.2c0.6 0.6 1 1.5 1 2.4 0.1 1.1-0.5 2.1-1.5 2.7zm8.1-19.9c-1.8 3.8-4.8 8.1-8.4 11.8l-8.2-8.2-14.4-14.1c-0.2-0.2-0.5-0.3-0.8-0.2l-5.6 2.3c-0.5 0.2-0.9 0.6-1.2 1.1l-1.5 2.5c-1 1.7-3.1 2.2-4.7 1.3-0.8-0.5-1.4-1.2-1.6-2.1s-0.1-1.8 0.3-2.6l2.2-3.9c0.3-0.5 0.8-1 1.3-1.3l0.2-0.1c0.1-0.1 0.2-0.1 0.4-0.2l26.6-11.1c0.5-0.2 0.9-0.3 1.4-0.4l15.3 15.2c0.6 3.4 0.1 6.9-1.3 10zm-7.4-33.4c0.4 0 0.8 0.2 1.1 0.4l16.4 16.4c0.6 0.6 0.6 1.5 0 2.1l-4.5001 4.5c-0.6 0.6-1.6 0.6-2.1 0l-16.4-16.3c-0.6-0.6-0.6-1.5 0-2.1l4.5-4.5c0.3-0.3 0.6-0.5 1-0.5z" stroke-width="0.6" fill="currentColor"/>
  <path stroke-width="2.4" d="m12.8 2h93.6c6 0 10.8 4.8 10.8 10.8v58.8c0 6-4.8 10.8-10.8 10.8h-93.6c-6 0-10.8-4.8-10.8-10.8v-58.8c0-6 4.8-10.8 10.8-10.8z"/>
 </g>
</svg>
