<?xml version="1.0" encoding="UTF-8" standalone="no"?>
<svg xmlns="http://www.w3.org/2000/svg" height="21.907mm" width="31.115mm" version="1.1" viewBox="0 0 31.115 21.907499">
 <g transform="translate(-191.57 93.442)">
  <g stroke="#000">
   <path d="m212.21-89.844c-0.21167 0.21167-0.26459 0.50271-0.18521 0.76729-0.10584 0.02646-0.21167 0.05292-0.3175 0.10583l-3.9423 1.6404-0.0265-0.02646-3.9423-1.4023c-0.0794-0.02646-0.15875-0.05292-0.23813-0.07937 0.10583-0.29104 0.0529-0.60854-0.18521-0.82021l-1.1906-1.1906c-0.29104-0.29104-0.82021-0.29104-1.1112 0l-4.3392 4.3392c-0.3175 0.3175-0.3175 0.79375 0 1.1112l1.1906 1.1906c0.15875 0.15875 0.34395 0.23812 0.55562 0.23812 0.10583 0 0.21167-0.02646 0.3175-0.05292-0.0529 0.82021 0.0794 1.614 0.44979 2.3548l0.0794 0.15875c-0.18521 0.23812-0.29104 0.52917-0.29104 0.82021 0 0.34396 0.13229 0.68792 0.37041 0.92604 0.23813 0.23812 0.58209 0.37042 0.92604 0.37042l-0.15875 0.15875c-0.23812 0.23812-0.37041 0.58208-0.37041 0.92604s0.13229 0.68792 0.37041 0.92604c0.23813 0.23812 0.58209 0.37042 0.92605 0.37042 0.10583 0 0.21166-0.02646 0.3175-0.05292-0.10584 0.42333 0 0.89958 0.34395 1.2435 0.23813 0.23812 0.58209 0.37042 0.92605 0.37042 0.29104 0 0.58208-0.10583 0.8202-0.29104 0 0.71438 0.58209 1.2965 1.2965 1.2965 0.21167 0 0.42334-0.05292 0.60854-0.15875l0.34396 0.34396c0.23813 0.23812 0.55563 0.37042 0.89959 0.37042 0.34395 0 0.66145-0.13229 0.89958-0.37042 0.23812-0.23812 0.37042-0.55562 0.37042-0.87312l0.26458 0.26458c0.47625 0.47625 1.2435 0.52917 1.7462 0.10583 0.26458-0.23812 0.44979-0.58208 0.44979-0.9525l0.0794 0.07937c0.5027 0.50271 1.27 0.52917 1.7727 0.10583 0.26459-0.23812 0.42334-0.58208 0.42334-0.9525v-0.02646c0.42333 0.29104 0.97896 0.3175 1.4288 0.05292 0.37041-0.23812 0.58208-0.635 0.58208-1.0848 0-0.34396-0.13229-0.66146-0.37042-0.89958l-0.23812-0.23812c0.97896-1.0054 1.7992-2.1696 2.3019-3.2279 0.34396-0.74083 0.50271-1.561 0.42334-2.3812 0.13229 0.07937 0.26458 0.13229 0.42333 0.13229 0.21167 0 0.39688-0.07937 0.55563-0.23812l1.1906-1.1906c0.3175-0.3175 0.3175-0.79375 0-1.1112l-4.445-4.3656c-0.29104-0.29104-0.82021-0.29104-1.1112 0zm-14.023 5.371-1.1906-1.1906c-0.15875-0.15875-0.15875-0.39688 0-0.55562l4.3392-4.3392c0.0794-0.07938 0.18521-0.10583 0.29104-0.10583 0.10584 0 0.21167 0.05292 0.29104 0.10583l1.1906 1.1906c0.15875 0.15875 0.15875 0.39688 0 0.55562l-4.3656 4.3392c-0.13229 0.13229-0.39687 0.13229-0.55562 0zm1.4552 4.4185c-0.18521-0.18521-0.26459-0.39688-0.26459-0.66146s0.10584-0.47625 0.26459-0.66146l0.29104-0.29104c0.18521-0.18521 0.39687-0.26458 0.66146-0.26458 0.23812 0 0.47625 0.10583 0.66146 0.26458 0.37041 0.37042 0.37041 0.9525 0 1.2965l-0.23813 0.23812s-0.0265 0-0.0265 0.02646l-0.0529 0.05292c-0.37042 0.34396-0.9525 0.3175-1.2965 0zm0.74083 2.3812c-0.18521-0.18521-0.26458-0.39688-0.26458-0.66146s0.10583-0.47625 0.26458-0.66146l0.79375-0.79375 0.0265-0.02646 0.0529-0.05292c0.15875-0.15875 0.39687-0.23812 0.635-0.23812 0.23812 0 0.47625 0.10583 0.66145 0.26458 0.18521 0.18521 0.26459 0.39688 0.26459 0.66146s-0.10584 0.47625-0.26459 0.66146l-0.84666 0.84667c-0.37042 0.34396-0.97896 0.34396-1.3229 0zm2.884 1.561c-0.34396 0.34396-0.9525 0.34396-1.2965 0-0.37042-0.37042-0.37042-0.9525 0-1.2965l0.66146-0.66146c0.18521-0.18521 0.39687-0.26458 0.66146-0.26458 0.23812 0 0.47625 0.10583 0.66146 0.26458 0.37041 0.37042 0.37041 0.9525 0 1.2965l-0.0529 0.05292-0.10583 0.10583zm0.55562 0.37042c0-0.23812 0.0794-0.42333 0.21167-0.58208l0.10583-0.10583c0.15875-0.13229 0.37042-0.21167 0.58209-0.21167 0.50271 0 0.92604 0.42333 0.92604 0.92604s-0.42333 0.92604-0.92604 0.92604c-0.50271-0.02646-0.89959-0.42333-0.89959-0.9525zm9.9483-1.0583c-0.34396 0.21167-0.82021 0.15875-1.1377-0.15875l-0.42333-0.44979s-0.0265 0-0.0265-0.02646l-1.905-1.905c-0.0794-0.07937-0.18521-0.07937-0.26459 0-0.0794 0.07938-0.0794 0.18521 0 0.26458l1.9315 1.9315c0.15875 0.15875 0.23813 0.37042 0.23813 0.60854 0 0.26458-0.10584 0.50271-0.3175 0.66146-0.34396 0.29104-0.89959 0.26458-1.2435-0.07937l-0.71438-0.71438c-0.0265-0.02646-0.0265-0.02646-0.0529-0.02646 0-0.02646-0.0265-0.05292-0.0529-0.05292l-1.3229-1.3229c-0.0794-0.07937-0.18521-0.07937-0.26458 0-0.0794 0.07937-0.0794 0.18521 0 0.26458l1.3229 1.3229c0.0265 0.02646 0.0265 0.02646 0.0529 0.02646 0 0.02646 0.0265 0.05292 0.0529 0.05292 0.15875 0.15875 0.26458 0.39688 0.26458 0.635 0 0.26458-0.10583 0.50271-0.3175 0.66146-0.34396 0.29104-0.89958 0.26458-1.2435-0.07937l-0.89958-0.89958-0.68792-0.68792c-0.0794-0.07937-0.18521-0.07937-0.26458 0-0.0794 0.07937-0.0794 0.18521 0 0.26458l0.68791 0.68792c0.15875 0.15875 0.26459 0.39688 0.26459 0.635s-0.0794 0.44979-0.26459 0.635c-0.15875 0.15875-0.37041 0.26458-0.635 0.26458-0.23812 0-0.44979-0.10583-0.635-0.26458l-0.29104-0.29104c0.23813-0.23812 0.37042-0.55562 0.37042-0.92604 0-0.71438-0.58209-1.2965-1.2965-1.2965-0.0794 0-0.15875 0-0.23813 0.02646 0.1323-0.44979 0.0265-0.9525-0.3175-1.3229-0.29104-0.29104-0.71437-0.39688-1.1112-0.34396 0.0529-0.15875 0.10584-0.3175 0.10584-0.47625 0-0.34396-0.13229-0.68792-0.37042-0.92604-0.29104-0.29104-0.66146-0.39687-1.0583-0.37042 0.23812-0.47625 0.15875-1.0848-0.23813-1.4817-0.50271-0.50271-1.3494-0.50271-1.8521 0l-0.0794 0.07937c-0.37041-0.79375-0.5027-1.6404-0.37041-2.4871v-0.02646l4.1275-4.1275c0.10583 0.02646 0.21166 0.05292 0.3175 0.10583l3.5983 1.27-2.5665 1.0848c-0.0529 0.02646-0.10583 0.05292-0.13229 0.05292 0 0-0.0265 0.02646-0.0529 0.02646-0.21166 0.10583-0.37041 0.29104-0.5027 0.47625l-0.55563 1.0583c-0.18521 0.29104-0.21167 0.66146-0.13229 0.97896 0.0794 0.34396 0.3175 0.60854 0.60854 0.79375 0.60854 0.37042 1.4288 0.15875 1.7727-0.47625l0.39687-0.66146c0.0265-0.05292 0.0794-0.10583 0.1323-0.10583l1.3494-0.55562 3.7042 3.6248 2.6723 2.6988c0.15875 0.15875 0.26458 0.39688 0.26458 0.635 0.0265 0.29104-0.13229 0.55562-0.39687 0.71438zm2.1431-5.2652c-0.47625 1.0054-1.27 2.1431-2.2225 3.1221l-2.1696-2.1696-3.81-3.7306c-0.0529-0.05292-0.13229-0.07937-0.21167-0.05292l-1.4817 0.60854c-0.1323 0.05292-0.23813 0.15875-0.3175 0.29104l-0.39688 0.66146c-0.26458 0.44979-0.82021 0.58208-1.2435 0.34396-0.21167-0.13229-0.37042-0.3175-0.42333-0.55562-0.0529-0.23812-0.0265-0.47625 0.0794-0.68792l0.58208-1.0319c0.0794-0.13229 0.21167-0.26458 0.34396-0.34396l0.0529-0.02646c0.0265-0.02646 0.0529-0.02646 0.10583-0.05292l7.0379-2.9369c0.13229-0.05292 0.23812-0.07937 0.37042-0.10583l4.0481 4.0217c0.15875 0.89958 0.0265 1.8256-0.34396 2.6458zm-1.9579-8.8371c0.10583 0 0.21166 0.05292 0.29104 0.10583l4.3392 4.3392c0.15875 0.15875 0.15875 0.39688 0 0.55562l-1.1906 1.1906c-0.15875 0.15875-0.42333 0.15875-0.55562 0l-4.3392-4.3127c-0.15875-0.15875-0.15875-0.39688 0-0.55562l1.1906-1.1906c0.0794-0.07937 0.15875-0.13229 0.26458-0.13229z" stroke-width=".15875" fill="currentColor"/>
   <path d="m194.75-93.124h24.765c1.5875 0 2.8575 1.27 2.8575 2.8575v15.557c0 1.5875-1.27 2.8575-2.8575 2.8575h-24.765c-1.5875 0-2.8575-1.27-2.8575-2.8575v-15.557c0-1.5875 1.27-2.8575 2.8575-2.8575z" stroke-width="0.635" fill="none"/>
  </g>
 </g>
</svg>
