<?xml version="1.0" encoding="UTF-8" standalone="no"?>
<svg xmlns="http://www.w3.org/2000/svg" height="7.4083mm" width="7.4083mm" version="1.1" viewBox="0 0 7.4083333 7.4083333">
 <g transform="translate(-85.498 -145.89)">
  <g fill="none" transform="matrix(.26458 0 0 .26458 85.498 145.89)">
   <circle stroke-width="2" stroke="currentColor" cy="14" cx="14" r="13"/>
   <path fill="currentColor" d="m13.564 11.817h1.536v8.48h-1.536zm0.768-1.632c-0.2987 0-0.5493-0.096-0.752-0.28804-0.192-0.192-0.288-0.42666-0.288-0.704 0-0.27733 0.096-0.512 0.288-0.704 0.2027-0.20266 0.4533-0.304 0.752-0.304s0.544 0.096 0.736 0.288c0.2027 0.18134 0.304 0.41067 0.304 0.688 0 0.288-0.1013 0.53334-0.304 0.736-0.192 0.192-0.437 0.288-0.736 0.288z"/>
  </g>
 </g>
</svg>
