<?xml version="1.0" encoding="UTF-8" standalone="no"?>
<svg xmlns="http://www.w3.org/2000/svg" height="7.9375mm" width="6.7469mm" version="1.1" viewBox="0 0 6.7468748 7.9375">
 <g transform="translate(-298.81 -159.98)">
  <g transform="matrix(.39688 0 0 .39688 297.62 159.19)">
   <path d="m11.5 2c-4.69 0-8.5 3.81-8.5 8.5s3.81 8.5 8.5 8.5h0.5v3c4.86-2.34 8-7 8-11.5 0-4.69-3.81-8.5-8.5-8.5zm1 14.5h-2v-2h2zm0-3.5h-2c0-3.25 3-3 3-5 0-1.1-0.9-2-2-2s-2 0.9-2 2h-2c0-2.21 1.79-4 4-4s4 1.79 4 4c0 2.5-3 2.75-3 5z"/>
   <path fill="none" d="m0 0h24v24h-24z"/>
  </g>
 </g>
</svg>
