<?xml version="1.0" encoding="UTF-8" standalone="no"?>
<svg xmlns="http://www.w3.org/2000/svg" height="21.573mm" width="17.546mm" version="1.1" viewBox="0 0 17.545746 21.573035">
 <g transform="translate(-55.089 -229.54)">
  <path stroke-width=".046078" d="m72.591 251.02c0.03389-0.045 0.05189-0.1507 0.04002-0.23491-0.01186-0.0842-0.35366-0.97401-0.75954-1.9774-0.65228-1.6125-0.73195-1.8353-0.68618-1.9193 0.02848-0.0522 0.03616-0.15585 0.01707-0.23024-0.02023-0.0787-2.4815-3.2315-5.8909-7.546-3.2209-4.0759-5.8623-7.4171-5.8697-7.4249-0.0074-0.008-0.29208 0.20027-0.6325 0.46239l-0.61894 0.47658-0.05042 0.27435-0.05042 0.27435 1.8296 2.3121c1.0297 1.3013 1.8448 2.3712 1.8643 2.4472 0.01908 0.0743 0.01261 0.1739-0.01437 0.22133-0.02699 0.0475-0.26118 0.24969-0.52044 0.44946l-0.47137 0.36325 3.8198 4.8325c2.1009 2.6579 3.8687 4.8623 3.9285 4.8986 0.05978 0.0363 0.1692 0.0575 0.24317 0.0471 0.11389-0.0161 0.37647 0.15417 1.7135 1.1107 0.86843 0.62131 1.6499 1.1603 1.7365 1.1977 0.19115 0.0825 0.29094 0.0732 0.37239-0.035zm-3.23-2.637c-0.0045-0.032 1.2749-1.0395 1.3298-1.0472 0.02567-0.003 1.1857 2.76 1.2053 2.8714 0.0061 0.0338-0.56093-0.35504-1.2597-0.8642-0.69877-0.50914-1.2727-0.94113-1.2753-0.95997zm-8.7759-9.8991c0.42978-0.3197 0.5259-0.43554 0.50202-0.60504-0.01335-0.0947-0.54531-0.80066-1.7808-2.3632l-1.7618-2.2282 0.04907-0.4323 0.04908-0.4323 0.52278-0.4087c0.54869-0.42894 0.62632-0.5179 0.6021-0.68987-0.01982-0.14063-1.25-1.6898-1.3967-1.7588-0.06344-0.0299-0.16441-0.0375-0.22438-0.017-0.05996 0.0205-0.53294 0.36482-1.0511 0.76525-0.90504 0.69946-1.03 0.82604-1.0032 1.0161 0.0043 0.0302 0.23474 0.34377 0.5122 0.69683l0.50446 0.64196-0.06413 0.51748-0.06413 0.51749 1.9078 2.4185c1.0493 1.3302 1.9751 2.4666 2.0573 2.5254 0.08219 0.0588 0.185 0.10165 0.22848 0.0952 0.04349-0.007 0.22839-0.12282 0.41093-0.2586z"/>
 </g>
</svg>
