<?xml version="1.0" encoding="UTF-8" standalone="no"?>
<svg xmlns="http://www.w3.org/2000/svg" height="135.47mm" width="135.47mm" version="1.1" viewBox="0 0 135.46899 135.46953">
 <g transform="translate(-1.2109 -3.9914)">
  <path d="m6.1321 10.503 27.517-6.35c2.9898-0.68792 6.059 0.87312 7.276 3.6777l12.7 29.633c1.1112 2.5929 0.37042 5.6356-1.8256 7.4083l-16.034 13.123c9.525 20.294 26.167 37.174 46.884 46.884l13.124-16.034c1.7992-2.196 4.8154-2.9369 7.4083-1.8256l29.633 12.7c2.831 1.2435 4.3921 4.3127 3.7042 7.3025l-6.35 27.517c-0.66146 2.8575-3.2014 4.9212-6.1912 4.9212-67.76 0-122.77-54.901-122.77-122.77 0-2.9633 2.0373-5.5298 4.9212-6.1912z" class="" stroke-width=".26458" fill="currentColor"/>
 </g>
</svg>
