<?xml version="1.0" encoding="UTF-8" standalone="no"?>
<svg xmlns="http://www.w3.org/2000/svg" height="2.2594mm" width="2.2112mm" version="1.1" viewBox="0 0 2.2111899 2.2594049">
 <g transform="translate(-217.25 -163.86)">
  <path stroke-width=".26458" fill="currentColor" d="m219.41 163.91c-0.0667-0.0681-0.17778-0.0681-0.24445 0l-0.8112 0.82885-0.80554-0.82885c-0.0667-0.0681-0.17778-0.0681-0.24444 0-0.0667 0.0681-0.0667 0.18167 0 0.2498l0.80556 0.82884-0.81112 0.82311c-0.0667 0.0681-0.0667 0.18166 0 0.24979 0.0333 0.0341 0.0778 0.0511 0.12222 0.0511 0.0444 0 0.0889-0.017 0.12223-0.0511l0.81112-0.82319 0.80556 0.82888c0.0333 0.0341 0.0778 0.0511 0.12224 0.0511 0.0445 0 0.0889-0.017 0.12221-0.0511 0.0667-0.0681 0.0667-0.18169 0-0.24982l-0.80564-0.82892 0.8112-0.82316c0.0667-0.0738 0.0667-0.18167 0-0.25547z"/>
 </g>
</svg>
