<?xml version="1.0" encoding="UTF-8" standalone="no"?>
<svg xmlns="http://www.w3.org/2000/svg" height="5.2917mm" width="5.2839mm" version="1.1" viewBox="0 0 5.2838727 5.291698">
 <path stroke-width=".012423" fill="#808184" d="m2.4224 5.2731c-0.7973-0.1094-1.4751-0.6005-1.8247-1.322-0.28188-0.5818-0.31229-1.2807-0.08175-1.8793 0.08561-0.2223 0.23105-0.4761 0.37136-0.6481l0.05956-0.073-0.12227-0.1226c-0.06725-0.0676-0.12688-0.1228-0.13254-0.1228-0.005649 0-0.030913 0.016077-0.056135 0.035732-0.09197 0.0716-0.185 0.0816-0.28708 0.0308-0.07633-0.0381-0.13225-0.114-0.14401-0.1955-0.01008-0.0699 0.02055-0.16323 0.07047-0.21474l0.04061-0.0419-0.15796-0.15831-0.15796-0.1583 0.16779-0.16745 0.16779-0.16744 2.4439 2.4439 2.4439 2.444-0.1675 0.1678-0.1674 0.1678-0.2921-0.2912-0.2921-0.2913-0.0683 0.0559c-0.2722 0.2225-0.6563 0.4058-1 0.4773-0.2496 0.0518-0.5704 0.0639-0.8137 0.0305zm0.4938-0.5156c0.2474-0.026 0.4503-0.0855 0.6642-0.1946 0.1227-0.0625 0.3451-0.2084 0.3451-0.2262 0-0.0042-0.58609-0.59371-1.3024-1.31l-1.3024-1.3025-0.0372 0.0477c-0.1698 0.2179-0.29934 0.5008-0.36038 0.7869-0.03204 0.15021-0.031953 0.55779 0 0.70809 0.07908 0.371 0.25078 0.6904 0.51118 0.9509 0.3965 0.3966 0.9446 0.5962 1.4819 0.5396zm1.7655-1.0155-0.1938-0.1957 0.0291-0.0928c0.0628-0.2001 0.0729-0.277 0.0727-0.5469-0.0003-0.2144-0.0045-0.2734-0.0269-0.3729-0.0804-0.3573-0.2365-0.6507-0.4816-0.9051-0.2179-0.2262-0.4705-0.3862-0.7574-0.4796-0.2038-0.0664-0.3441-0.0873-0.5847-0.0869-0.2272 0.0003-0.3449 0.0172-0.5313 0.076l-0.0997 0.0316-0.1969-0.1967c-0.1084-0.10814-0.197-0.20032-0.197-0.20483 0-0.004525 0.048175-0.028386 0.10705-0.053036 0.7189-0.30088 1.5335-0.23592 2.1871 0.17442 0.6284 0.39455 1.0341 1.0498 1.1092 1.7916 0.025171 0.24883 0.01085 0.48492-0.044442 0.73327-0.044826 0.2013-0.1601 0.52321-0.18735 0.52321-0.00559 0-0.097352-0.088045-0.20394-0.19566zm0.2523-2.5531c-0.0234-0.0074-0.2334-0.1731-0.4845-0.38212-0.325-0.2705-0.451-0.38292-0.4725-0.42112-0.064-0.11433-0.0245-0.27141 0.0869-0.34513 0.06495-0.042981 0.17702-0.053573 0.24455-0.023114 0.065639 0.0296 0.90953 0.7378 0.93793 0.78714 0.0781 0.13565 0.0302 0.30014-0.1074 0.36874-0.0673 0.0335-0.1336 0.0386-0.205 0.0157zm-3.699-0.89256-0.1853-0.18639 0.0425-0.036084c0.071753-0.060835 0.11949-0.077364 0.20725-0.071775 0.09724 0.00619 0.16852 0.051155 0.21295 0.13432 0.041723 0.07811 0.036195 0.19737-0.012565 0.27104-0.062556 0.09453-0.058488 0.096232-0.26475-0.11109z"/>
</svg>
