<?xml version="1.0" encoding="UTF-8" standalone="no"?>
<svg xmlns="http://www.w3.org/2000/svg" fill="none" height="15.405" width="24" version="1.1" viewBox="0 0 24.000218 15.404819">
 <g fill="#ff5a5a">
  <g transform="matrix(.72279 0 0 .72279 -.0000097968 -1.1072)">
   <path d="m11.98 1.252c-6.6225 0-11.98 6.4863-11.98 6.4863s4.4093 6.4863 11.98 6.4863c0.03343 0 0.06435-0.0056 0.09766-0.0059v-2.5156c-0.30415 0.0094-0.60862-0.0057-0.91016-0.06641-0.784-0.158-1.5035-0.548-2.0684-1.119-0.5648-0.5722-0.9496-1.3011-1.1055-2.0942-0.1558-0.7931-0.0752-1.6142 0.2305-2.3613s0.8222-1.3847 1.4863-1.834c0.6641-0.4492 1.4451-0.6894 2.2441-0.6894 0.04164 0 0.08155 0.010422 0.12305 0.011719v-2.293c-0.03289-0.0003144-0.0647-0.00586-0.09766-0.00586zm1.7344 0.15625v2.5566c0.3997 0.1969 0.77541 0.44726 1.0957 0.77148 0.75747 0.76675 1.1836 1.8063 1.1836 2.8906 0 0.80865-0.23778 1.5992-0.68164 2.2715-0.39908 0.60461-0.95413 1.0799-1.5977 1.3965v2.799c6.508-0.887 10.286-6.4631 10.286-6.4631s-4.4825-5.2791-10.285-6.2227zm0.49219 1.5078c4.4124 0.81652 7.7148 3.8232 7.7148 4.8223 0 0.99903-3.3024 4.0038-7.7148 4.8203 0.90825-0.42651 1.678-1.1067 2.2168-1.9609 0.53876-0.85425 0.82422-1.8459 0.82422-2.8594s-0.28546-2.0071-0.82422-2.8613c-0.538-0.8543-1.308-1.5345-2.216-1.961zm-4.4404 0.0117c-0.902 0.4294-1.665 1.1091-2.1992 1.961-0.5342 0.8518-0.8184 1.8406-0.8184 2.8496s0.28414 1.9958 0.81836 2.8477c0.53421 0.85187 1.2972 1.5335 2.1992 1.9629-4.4006-0.84493-7.6914-3.9179-7.6914-4.8105 0-0.8935 3.2904-3.9656 7.6914-4.8105z" transform="matrix(1.3835 0 0 1.3835 .000013554 1.5316)" stroke-width=".72278" fill="#ff5a5a"/>
  </g>
  <path d="m11.478-0.078045v15.483" stroke="#ff5a5a" stroke-width="1.2"/>
 </g>
</svg>
