<?xml version="1.0" encoding="UTF-8" standalone="no"?>
<svg xmlns="http://www.w3.org/2000/svg" fill="none" height="15.405" width="24" version="1.1" viewBox="0 0 24 15.404999">
 <g fill-opacity=".94118" transform="matrix(.72278 0 0 .72278 .055195 -1.1422)" fill="#808184">
  <path d="m16.575 3.263c-9.1632 0-16.575 8.975-16.575 8.975s6.0999 8.9734 16.575 8.9734 16.63-9.1226 16.63-9.1226-7.4685-8.8259-16.63-8.8259zm-13.706 8.975c0-1.2362 4.553-5.4877 10.642-6.6567-1.248 0.59411-2.3032 1.5355-3.0423 2.7141-0.73911 1.1786-1.1316 2.5458-1.1316 3.9418s0.39248 2.7632 1.1316 3.9418c0.7391 1.1786 1.7943 2.12 3.0423 2.7141-6.0884-1.169-10.642-5.42-10.642-6.655zm16.788 6.67c1.2566-0.5901 2.3203-1.5316 3.0658-2.7135 0.7454-1.1819 1.1415-2.5549 1.1415-3.9571s-0.3961-2.7752-1.1415-3.9571c-0.7455-1.1819-1.8092-2.1234-3.0658-2.7135 6.1047 1.1297 10.674 5.2893 10.674 6.6715s-4.5692 5.5401-10.674 6.6698zm2.4717-6.8239c0 1.1188-0.3277 2.2124-0.9418 3.1426-0.614 0.9302-1.4867 1.6552-2.5078 2.0834-1.0211 0.4281-2.1446 0.5401-3.2286 0.3218-1.084-0.2182-2.0797-0.7569-2.8612-1.548s-1.3137-1.799-1.5293-2.8963-0.1049-2.2346 0.318-3.2682 1.1392-1.917 2.0581-2.5386c0.919-0.62155 1.9994-0.9533 3.1046-0.9533 1.482 0 2.9033 0.59596 3.9513 1.6568s1.6367 2.4996 1.6367 3.9998z"/>
  <path d="m16.54 14.824c1.4948 0 2.7066-1.2266 2.7066-2.7398 0-1.5131-1.2118-2.7398-2.7066-2.7398s-2.7065 1.2266-2.7065 2.7398 1.2117 2.7398 2.7065 2.7398z"/>
 </g>
</svg>
