<?xml version="1.0" encoding="UTF-8" standalone="no"?>
<svg xmlns="http://www.w3.org/2000/svg" height="8.7065mm" width="6.35mm" version="1.1" viewBox="0 0 6.350187 8.7066533">
 <defs>
  <linearGradient id="linearGradient924" y2="263.86" gradientUnits="userSpaceOnUse" y1="50.582" x2="-181.73" x1="-184.49">
   <stop stop-color="#1a76bb" offset="0"/>
   <stop stop-color="#1a76bb" stop-opacity="0" offset="1"/>
  </linearGradient>
 </defs>
 <g transform="matrix(.040521 0 0 .040521 10.682 -1.9868)">
  <path stroke-width=".26458" fill="url(#linearGradient924)" d="m-213.3 257.17-9.968-6.6432-6.5684 2.5236c-3.6126 1.388-9.545 3.6544-13.183 5.0365s-8.3204 3.1766-10.405 3.9878c-2.0848 0.81119-4.0631 1.4749-4.3961 1.4749-0.33304 0-0.91009-0.23958-1.2823-0.5324-1.3594-1.0693-1.275-1.4326 2.2833-9.8231 1.812-4.2726 5.4579-12.888 8.102-19.146 6.8167-16.132 14.797-34.986 15.381-36.338l0.49585-1.1489 0.86236 0.86236c1.1624 1.1624 3.3429 2.1198 5.2142 2.2895 1.6662 0.15109 4.7831-0.42206 6.9708-1.2818 0.95458-0.37514 1.289-0.41615 1.3619-0.16702 2.4858 8.4922 8.191 11.813 14.901 8.6726 0.94539-0.44239 2.2858-1.2205 2.9787-1.7291 0.69288-0.50862 1.3218-0.92476 1.3976-0.92476s0.46246 0.55392 0.85922 1.2309c0.39676 0.67702 1.4586 1.9569 2.3596 2.8443l1.6382 1.6133-1.655 14.684c-4.6113 40.916-4.2172 37.806-4.8816 38.513-1.3028 1.3868-1.5929 1.2472-12.466-5.9992zm46.134 6.036c-0.31417-0.33442-0.63661-0.9595-0.71653-1.3891-0.0799-0.42957-1.093-9.2345-2.2514-19.566-1.1583-10.332-2.4638-21.881-2.9009-25.665-0.43719-3.7835-0.79513-7.0761-0.79542-7.3168-0.00053-0.39425 0.13709-0.38425 1.3885 0.10091 0.9095 0.3526 2.0741 0.54935 3.3734 0.56989 3.8205 0.0604 6.5515-1.9553 8.9072-6.5743l1.2614-2.4734 1.1995 0.60678c3.7557 1.8998 7.99 2.3548 10.631 1.1424 3.3561-1.5405 4.9898-4.299 6.2108-10.487 0.0842-0.42696 0.24905-0.5707 0.53051-0.46269 0.22458 0.0862 1.0427 0.23124 1.8181 0.32237l1.4098 0.16569 1.0532 2.4137c0.57924 1.3275 1.8331 4.2591 2.7864 6.5147 0.95326 2.2556 3.422 8.0896 5.4861 12.965 2.0641 4.875 5.2104 12.316 6.9919 16.536 1.7814 4.2201 4.8102 11.364 6.7306 15.875 1.9204 4.5112 4.086 9.6664 4.8124 11.456l1.3208 3.254-0.47868 0.9749c-0.8421 1.715-1.5045 1.6992-6.3482-0.15215-2.3015-0.87966-8.2923-3.1658-13.313-5.0802-5.0205-1.9144-10.841-4.1348-12.934-4.9341l-3.806-1.4533-9.9558 6.6325c-10.804 7.1975-11.152 7.3662-12.412 6.0245zm-23.466-57.825c-0.43656-0.26799-2.1595-2.4107-3.8288-4.7615s-3.1256-4.2742-3.2363-4.2742c-0.11071 0-2.1746 1.3091-4.5864 2.909-2.4118 1.6-4.687 2.9848-5.0559 3.0774-0.98009 0.24599-2.6089-0.33044-3.3153-1.1733-0.33815-0.40344-1.437-2.9314-2.4418-5.6176s-1.8448-4.9104-1.8666-4.9426-2.2578 0.71194-4.969 1.6536c-2.7341 0.94966-5.3789 1.7118-5.9387 1.7112-1.3081-0.001-2.6704-0.84483-3.1056-1.923-0.18961-0.46976-0.55636-3.2056-0.81502-6.0796l-0.47027-5.2255-0.82271 0.008c-0.45249 0.004-2.9057 0.17237-5.4516 0.37335-5.2036 0.41077-5.7086 0.32665-6.959-1.1594-0.93317-1.109-0.92271-1.8334 0.11189-7.7556 0.46595-2.6672 0.7259-4.8247 0.59531-4.9409-0.1275-0.11346-2.5345-0.64474-5.3489-1.1806-2.8144-0.53589-5.4101-1.1663-5.7682-1.401-0.35811-0.23465-0.82362-0.76022-1.0345-1.168-0.7508-1.4519-0.49432-2.5542 1.7333-7.4494 1.1642-2.5582 2.1167-4.752 2.1167-4.8751 0-0.12305-2.2048-1.3242-4.8996-2.6693-5.3476-2.6692-5.9454-3.189-5.9474-5.172-0.001-1.3396 0.17037-1.624 3.2822-5.4364 1.4684-1.799 2.9375-3.6034 3.2646-4.0097l0.59474-0.73871-3.9366-3.3987c-4.1752-3.6046-4.8325-4.3811-4.8714-5.7539-0.0522-1.842 0.45325-2.4078 5.1441-5.7579 2.4523-1.7514 4.4588-3.2335 4.4588-3.2937s-1.3692-2.1612-3.0427-4.6689c-2.8067-4.2058-3.0427-4.6563-3.0427-5.8082 0-2.1737 0.75174-2.7418 6.4133-4.8464 2.6573-0.98786 4.9364-1.8881 5.0646-2.0006 0.12951-0.1136-0.55561-2.508-1.5414-5.3867-1.8644-5.4446-1.9454-6.0533-0.99905-7.4977 0.71483-1.091 1.7484-1.374 6.9893-1.9139 2.7965-0.2881 5.209-0.52382 5.361-0.52382 0.19013 0 0.17011-1.7105-0.0641-5.4787-0.26065-4.1934-0.2682-5.6533-0.0322-6.2231 0.37107-0.89584 1.6203-1.9946 2.5263-2.222 0.36205-0.09087 2.89 0.20682 5.6176 0.66154 2.7276 0.45471 5.1442 0.82675 5.3702 0.82675 0.32253 0 0.62643-1.0953 1.4132-5.0932 0.55124-2.8013 1.1688-5.4259 1.3723-5.8325 0.48709-0.9731 1.8364-1.7725 2.9902-1.7715 0.60193 0.000529 2.6313 0.7873 5.7984 2.248 2.6798 1.2359 4.914 2.2472 4.9649 2.2472s1.1446-2.1729 2.4304-4.8286c1.2858-2.6558 2.6362-5.1013 3.0008-5.4344 0.7293-0.66642 2.1947-1.0062 3.2246-0.74773 0.36434 0.09145 2.5437 1.7105 4.843 3.598 2.2993 1.8874 4.2478 3.4345 4.3299 3.4379s1.7348-1.8272 3.6726-4.0681 3.811-4.2054 4.1626-4.3656c0.8926-0.40669 2.3541-0.36305 3.2435 0.09685 0.4499 0.23265 1.9991 2.1407 3.867 4.7625 1.714 2.4059 3.2184 4.3743 3.3431 4.3743 0.12469 0 2.2184-1.3386 4.6527-2.9748 4.2574-2.8614 4.4797-2.9748 5.8354-2.9766 2.1235-0.0027 2.6792 0.75273 4.9126 6.6789 1.0639 2.8229 1.9614 4.8286 2.1608 4.8286 0.18756 0 2.4134-0.71438 4.9464-1.5875 4.7695-1.6441 6.0546-1.8556 7.3144-1.2041 1.4273 0.73809 1.6291 1.4013 2.208 7.2559 0.2968 3.0017 0.56219 5.4873 0.58975 5.5236 0.0276 0.03625 2.4755-0.10408 5.4398-0.31183 5.8884-0.41268 6.3958-0.34815 7.6079 0.96765 0.96167 1.044 0.97012 2.1403 0.0585 7.5958-0.46688 2.7939-0.7785 5.1502-0.69249 5.2362 0.086 0.08601 2.4492 0.60893 5.2517 1.1621 2.8024 0.55313 5.3635 1.1271 5.6912 1.2755 0.85212 0.3858 1.6509 1.8345 1.652 2.9963 0.00079 0.67641-0.67802 2.5109-2.1157 5.7187-1.1642 2.5976-2.1167 4.831-2.1167 4.9631 0 0.13215 2.1498 1.3092 4.7774 2.6156 2.6276 1.3065 5.0186 2.6316 5.3134 2.9447 0.58701 0.62351 0.91819 2.3251 0.65593 3.37-0.0917 0.36519-1.6132 2.4262-3.3811 4.58-1.768 2.1538-3.3178 4.0507-3.4442 4.2153-0.15287 0.19917 0.99914 1.3667 3.4458 3.4922 4.7704 4.1442 5.0682 4.5044 5.0682 6.1305 0 1.7413-0.50427 2.2831-5.3 5.6945-2.1748 1.547-4.019 2.9175-4.0981 3.0455-0.0791 0.12802 1.2448 2.3167 2.9421 4.8636l3.0859 4.6309-0.12934 1.3461c-0.20364 2.1193-0.79282 2.5472-6.3676 4.6236-2.6495 0.98689-4.9164 1.8838-5.0376 1.9932-0.1212 0.10937 0.58914 2.5851 1.5786 5.5017l1.7989 5.3028-0.5238 1.2639c-0.80249 1.9363-1.294 2.1153-7.5167 2.7369-2.9663 0.29633-5.4203 0.56809-5.4534 0.60392-0.0331 0.0358 0.10892 2.4464 0.31566 5.3568s0.31627 5.5402 0.24338 5.844c-0.21546 0.89804-1.2248 1.9976-2.2125 2.4103-0.84418 0.35273-1.3716 0.31254-6.2987-0.47994-2.9575-0.4757-5.4331-0.80917-5.5012-0.74106-0.0681 0.0681-0.59745 2.4619-1.1763 5.3196-0.57884 2.8576-1.2476 5.4935-1.4861 5.8575-0.51363 0.78391-1.912 1.5011-2.9267 1.5011-0.39838 0-2.583-0.84761-4.8548-1.8836s-4.5202-2.0508-4.9966-2.2551l-0.86609-0.37153-2.3342 4.8496c-2.3399 4.8614-3.0318 5.8231-4.445 6.1778-1.4659 0.36793-2.4091-0.14649-6.6325-3.6176-2.2939-1.8852-4.242-3.428-4.3291-3.4282-0.0871-0.00026-1.6833 1.7556-3.547 3.9021-1.8637 2.1464-3.6974 4.1102-4.0749 4.3639-0.89464 0.60123-2.5964 0.58965-3.5968-0.0245zm15.081-23.288c5.8899-1.1131 10.259-2.5771 15.43-5.1704 15.043-7.5441 26.063-22.046 29.276-38.526 2.2755-11.67 0.99981-23.139-3.7542-33.752-6.8856-15.372-20.497-26.816-36.937-31.054-9.967-2.5699-21.816-2.1122-31.507 1.217-3.6932 1.2688-9.5392 4.1602-12.857 6.3589-20.145 13.352-29.356 38.406-22.647 61.601 3.6862 12.744 11.911 23.893 22.936 31.091 6.76 4.4134 14.446 7.2945 22.995 8.6195 3.4877 0.54056 13.346 0.31836 17.066-0.38465zm-14.935-7.7473c-2.7625-0.28849-7.7078-1.3823-10.19-2.2539-3.0603-1.0745-9.0985-4.2055-11.784-6.1106-3.8542-2.7337-9.2714-8.2709-11.71-11.969-6.1647-9.3494-8.8867-19.394-8.1007-29.895 1.2676-16.935 10.97-31.423 26.125-39.014 11.531-5.7749 25.715-6.4744 37.669-1.8575 6.3946 2.4696 11.463 5.7989 16.479 10.825 7.5089 7.5238 11.939 16.225 13.486 26.49 0.79959 5.3051 0.40068 13.113-0.94091 18.417-3.3163 13.11-12.272 24.327-24.333 30.476-8.2795 4.2209-17.3 5.8735-26.7 4.8918zm-13.64-17.248c0.58208-0.33639 5.0782-3.0716 9.9914-6.0782l8.9331-5.4666 7.2065 4.4056c3.9636 2.4231 8.2517 5.0448 9.5291 5.8261 3.0962 1.8938 3.4493 2.0138 4.5599 1.5498 0.92389-0.38603 1.3803-1.285 1.217-2.397-0.0427-0.29104-1.198-5.2072-2.5672-10.925-1.3692-5.7176-2.483-10.599-2.4751-10.848 0.008-0.25466 2.7447-2.7643 6.2632-5.7439 9.7938-8.2937 10.842-9.2206 11.155-9.8682 0.44422-0.91757 0.35832-1.5372-0.32292-2.3292-0.69949-0.8132-1.0968-0.86287-16.303-2.0377l-7.5272-0.58159-0.8457-1.9844c-0.46513-1.0914-2.4211-5.7944-4.3466-10.451-1.9255-4.6567-3.7446-8.7346-4.0425-9.062-0.74029-0.81368-2.2774-0.81368-3.0092 0-0.29449 0.32742-2.4705 5.2388-4.8355 10.914-2.3651 5.6753-4.4061 10.385-4.5357 10.465-0.12955 0.0806-5.3189 0.55355-11.532 1.0509-10.837 0.86758-11.327 0.92976-12.041 1.5306-0.94772 0.79745-1.0123 2.1146-0.14894 3.0396 0.32743 0.35078 4.316 3.8219 8.8636 7.7136 4.5475 3.8917 8.2682 7.1926 8.2682 7.3353 0 0.26081-1.965 8.6906-3.9566 16.973-1.3913 5.7864-1.3802 6.4601 0.1201 7.2807 0.77589 0.42438 1.2032 0.36831 2.3812-0.31246z"/>
 </g>
</svg>
